<svg xmlns="http://www.w3.org/2000/svg" width="1024" height="1024" viewBox="0 0 1024 1024" version="1.1">
	<path d="M 109.446 260.472 C 102.348 264.019, 97.730 268.155, 93.067 275.138 C 87.901 282.873, 85.775 290.159, 85.852 299.864 C 85.954 312.727, 90.550 323.169, 101.049 334.394 C 114.510 348.783, 136.294 360.033, 162.263 366.007 C 170.514 367.905, 172.087 368.581, 172.422 370.376 C 172.641 371.544, 173.756 377.549, 174.900 383.720 C 176.045 389.891, 179.232 403.353, 181.983 413.635 C 193.243 455.718, 193.636 471.442, 183.935 491.894 C 176.418 507.742, 160.519 520.533, 143.243 524.632 C 130.070 527.756, 115.512 526.363, 104.929 520.964 C 96.598 516.714, 88.825 506.493, 86.030 496.111 C 84.310 489.723, 84.567 475.008, 86.517 468.252 C 92.355 448.027, 108.765 433.567, 129 430.818 C 139.632 429.374, 141.386 427.989, 141.231 421.166 C 141.088 414.874, 137.923 408.133, 132.483 402.536 C 115.596 385.161, 79.046 386.664, 55.535 405.701 C 42.664 416.123, 32.670 431.453, 27.960 448 C 23.236 464.599, 24.520 489.064, 30.994 505.808 C 40.633 530.733, 63.476 549.898, 92.583 557.480 C 115.832 563.535, 148.356 561.433, 173 552.281 C 184.966 547.838, 190.573 545.013, 200 538.678 C 232.475 516.855, 250.629 480.047, 247 443.385 C 246.462 437.948, 245.750 432.375, 245.417 431 C 243.513 423.119, 239.038 411.084, 234.261 401 C 228.805 389.483, 222 372.905, 222 371.132 C 222 370.612, 224.363 369.902, 227.250 369.553 C 261.708 365.390, 290.585 354.967, 309.663 339.806 C 340.622 315.205, 340.184 280.306, 308.730 265.473 C 297.535 260.193, 291.118 258.835, 274.679 258.264 C 248.295 257.347, 228.592 262.639, 210.500 275.502 C 189.844 290.188, 177.905 310.620, 172.375 340.750 C 171.807 343.843, 170.672 343.623, 162.558 338.839 C 153.678 333.605, 142.460 322.327, 138.348 314.500 C 131.933 302.290, 130.626 296.225, 130.513 278.125 C 130.414 262.272, 130.337 261.691, 128.095 259.875 C 124.601 257.047, 115.732 257.331, 109.446 260.472 M 266.500 283.136 C 240.916 286.085, 221.039 309.935, 219.254 339.824 L 218.697 349.147 222.599 348.516 C 239.421 345.795, 250.819 342.186, 264 335.406 C 290.007 322.030, 301.150 301.345, 289.186 288.649 C 284.663 283.849, 276.829 281.945, 266.500 283.136 M 668.342 356.422 C 634.399 362.855, 599.622 390.498, 573.256 432 C 565.687 443.914, 562.440 447.211, 554.576 450.964 C 546.534 454.802, 539.321 456.323, 531.629 455.803 C 525.457 455.386, 518 452.631, 518 450.767 C 518 450.215, 520.404 446.328, 523.342 442.131 C 535.593 424.629, 546.294 405.427, 551.491 391.620 C 556.984 377.027, 556.795 365.036, 550.989 359.750 C 544.999 354.296, 533.322 356.561, 521.500 365.470 C 497.433 383.605, 480.958 415.341, 482.156 441.262 L 482.473 448.122 476.486 455.810 C 468.051 466.643, 444.676 489.949, 437.331 494.849 C 430.154 499.637, 422.815 502.001, 420.208 500.365 C 417.572 498.710, 417.480 489.453, 420.009 480.235 C 426.673 455.946, 445.758 417.319, 463.394 392.427 C 471.015 381.670, 470.833 379.520, 461.487 369.885 C 455.764 363.985, 448.099 359.772, 442.838 359.634 C 437.857 359.504, 433.454 363.155, 424 375.253 C 415.257 386.443, 406.357 400.462, 396.864 418 C 388.725 433.035, 385.982 437.096, 372.888 453.493 C 354.196 476.901, 331.590 498.559, 323.812 500.511 C 321.662 501.051, 320.839 500.684, 319.454 498.570 C 317.953 496.280, 317.891 495.229, 318.942 489.887 C 322.959 469.471, 346.631 424.784, 369.470 394.502 C 373.086 389.708, 376.520 384.897, 377.100 383.812 C 378.646 380.924, 374.007 372.056, 368.341 367.069 C 363.028 362.392, 353.809 358.584, 350.054 359.514 C 346.186 360.473, 329.534 378.136, 320.295 391.081 C 295.392 425.973, 274.159 467.929, 266.991 496.410 C 264.577 506.002, 264.370 519.514, 266.526 526.774 C 268.648 533.920, 273.521 540.005, 279.507 542.985 C 283.566 545.005, 285.903 545.453, 292 545.382 C 300.963 545.277, 308.358 542.557, 319.276 535.351 C 329.019 528.919, 347.405 510.781, 359 496.161 C 364.225 489.573, 368.578 484.257, 368.673 484.347 C 368.767 484.438, 368.128 487.434, 367.252 491.006 C 366.280 494.970, 365.628 502.174, 365.580 509.500 C 365.507 520.485, 365.724 521.978, 368.151 527.155 C 373.123 537.760, 382.079 543.869, 395.018 545.481 C 409.353 547.267, 432.066 536.721, 454.899 517.677 C 465.738 508.637, 483.809 491.083, 491 482.608 C 494.025 479.043, 496.841 476.098, 497.259 476.063 C 497.676 476.028, 499.811 477.299, 502.003 478.888 C 510.955 485.372, 529.068 486.806, 542.414 482.086 C 545.667 480.936, 548.518 480.184, 548.749 480.416 C 548.981 480.647, 548.131 484.811, 546.861 489.668 C 543.853 501.173, 543.590 518.843, 546.311 526.671 C 548.727 533.621, 554.674 540.166, 561.212 543.070 C 568.777 546.430, 580.844 546.261, 590.263 542.663 C 608.079 535.858, 630.435 515.804, 650.306 488.804 C 654.231 483.471, 657.572 479.239, 657.731 479.398 C 657.891 479.558, 657.373 481.525, 656.581 483.770 C 651.347 498.604, 649.537 519.710, 652.611 530.061 C 655.427 539.545, 663.915 545.977, 673.637 545.994 C 679.148 546.004, 692.493 541.516, 700.396 536.994 C 711.467 530.660, 726.873 518.771, 739.441 506.865 C 745.458 501.164, 750.082 497.293, 749.717 498.263 C 746.996 505.485, 748.208 521.963, 752.130 531.080 C 756.007 540.092, 765.702 546.823, 772.912 545.507 C 778.440 544.498, 780.573 542.604, 784.438 535.269 C 797.112 511.223, 864.133 435.059, 902.253 401.383 C 908.718 395.672, 914.215 391, 914.470 391 C 914.725 391, 912.108 394.938, 908.655 399.750 C 887.926 428.638, 867.741 468.403, 860.811 494 C 857.512 506.183, 857.509 523.349, 860.804 530.500 C 868.381 546.948, 884.465 550.056, 905.500 539.137 C 925.670 528.668, 953.990 502.038, 987.809 461.739 C 996.753 451.082, 997.733 448.149, 994.163 442.734 C 989.019 434.933, 984.971 435.061, 977.912 443.250 C 952.515 472.708, 922.080 501, 915.786 501 C 914.829 501, 913.289 499.844, 912.363 498.431 C 910.876 496.162, 910.822 495.081, 911.900 489.181 C 915.709 468.335, 932.804 432.843, 951.986 405.958 C 955.730 400.710, 959.515 395.818, 960.397 395.086 C 964.634 391.569, 960.430 378.259, 952.715 370.761 C 943.980 362.272, 930.796 357.632, 922.079 359.979 C 905.266 364.506, 854.999 412.424, 811.954 464.957 C 806.479 471.639, 802 476.744, 802.001 476.303 C 802.002 474.607, 815.053 448.883, 822.448 436 C 831.163 420.819, 846.361 397.495, 853.336 388.599 C 857.034 383.883, 857.840 382.177, 857.353 380.099 C 855.589 372.582, 845.734 362.851, 837.442 360.440 C 832.747 359.075, 831.776 359.064, 829.292 360.349 C 821.087 364.592, 801.434 391.032, 784.582 420.500 C 780.808 427.100, 776.014 435.425, 773.930 439 C 767.852 449.423, 737.222 480.386, 721.490 492.007 C 715.781 496.225, 706.815 501, 704.605 501 C 702.195 501, 700 498.055, 700 494.823 C 700 478.572, 726.567 427.343, 753.103 392.424 C 756.896 387.433, 760 382.470, 760 381.397 C 760 375.388, 745.188 361.959, 736.364 359.969 C 734.368 359.519, 731.719 359.537, 730.478 360.008 C 727.299 361.217, 721.624 366.386, 714.903 374.193 L 709.141 380.887 708.071 375.894 C 707.482 373.147, 706.363 369.685, 705.585 368.200 C 703.549 364.313, 698.071 359.339, 693.918 357.608 C 688.632 355.403, 676.648 354.847, 668.342 356.422 M 676.795 381.502 C 658.259 388.315, 626.592 425.558, 607.720 462.739 C 595.097 487.610, 591.916 502.182, 598.458 505.163 C 603.892 507.639, 617.423 497.962, 633.328 480.228 C 648.304 463.529, 678.571 425.167, 690.104 408.265 C 695.109 400.930, 696 398.956, 696 395.199 C 696 387.125, 689.962 379.907, 683.346 380.070 C 681.781 380.109, 678.833 380.754, 676.795 381.502" stroke="none" fill="#000000" fill-rule="evenodd"/>
</svg>